<svg id="Layer_1" data-name="Layer 1" xmlns="http://www.w3.org/2000/svg" xmlns:xlink="http://www.w3.org/1999/xlink" viewBox="0 0 561 118"><defs><style>.cls-1{fill:url(#linear-gradient);}.cls-2{fill:url(#linear-gradient-2);}.cls-3{fill:#167adc;}</style><linearGradient id="linear-gradient" x1="19.12" y1="59.02" x2="68.3" y2="59.02" gradientUnits="userSpaceOnUse"><stop offset="0" stop-color="#1dcfff"/><stop offset="1" stop-color="#009ffa"/></linearGradient><linearGradient id="linear-gradient-2" x1="118.14" y1="96.78" x2="56.72" y2="14.88" gradientUnits="userSpaceOnUse"><stop offset="0" stop-color="#1dcfff"/><stop offset="1" stop-color="#1237c1"/></linearGradient></defs><title>product logos</title><polygon class="cls-1" points="68.3 21.31 19.12 55.19 67.21 96.72 67.21 69.4 50.82 57.38 67.21 46.45 68.3 21.31"/><polygon class="cls-2" points="79.38 21.28 126.88 56.84 79.38 96.69 79.38 69.36 94.68 57.34 79.38 46.41 79.38 21.28"/><path class="cls-3" d="M172.12,35.55a25.64,25.64,0,0,1,8.61,1.31,16.48,16.48,0,0,1,6.09,3.71,16.28,16.28,0,0,1,3.76,5.83A26,26,0,0,1,192.15,54a91.18,91.18,0,0,1,0,9.92,26,26,0,0,1-1.57,7.64,16.61,16.61,0,0,1-3.72,5.83,16.27,16.27,0,0,1-6,3.71,24.55,24.55,0,0,1-8.41,1.31H155.57a1.83,1.83,0,0,1-1.81-1.81V37.36a1.83,1.83,0,0,1,1.81-1.81Zm11,18.49a13.35,13.35,0,0,0-.84-4,9.07,9.07,0,0,0-2.08-3.22,9.4,9.4,0,0,0-3.45-2.14,14.12,14.12,0,0,0-5-.77h-9V74.07h9.32a13.11,13.11,0,0,0,4.75-.77,9.27,9.27,0,0,0,3.35-2.11A8.8,8.8,0,0,0,182.27,68a13.83,13.83,0,0,0,.84-4A96.54,96.54,0,0,0,183.11,54Z"/><path class="cls-3" d="M232.15,74.07A1.84,1.84,0,0,1,234,75.88v4.76a1.84,1.84,0,0,1-1.81,1.81H202.74a1.83,1.83,0,0,1-1.81-1.81V37.36a1.83,1.83,0,0,1,1.81-1.81h28.87a1.83,1.83,0,0,1,1.81,1.81v4.76a1.83,1.83,0,0,1-1.81,1.81H210V54.58h20.17A1.83,1.83,0,0,1,232,56.39v4.75A1.83,1.83,0,0,1,230.14,63H210V74.07Z"/><path class="cls-3" d="M259.28,69.18l11.26-32a3.72,3.72,0,0,1,.7-1.1,1.92,1.92,0,0,1,1.51-.57h5.09a1.83,1.83,0,0,1,1.81,1.81v.23a1.49,1.49,0,0,1-.13.44l-15,42.14a4.84,4.84,0,0,1-.94,1.71,2.11,2.11,0,0,1-1.61.57H256.6a2.08,2.08,0,0,1-1.6-.57,4.84,4.84,0,0,1-.94-1.71L239.05,38a1.49,1.49,0,0,1-.13-.44v-.23a1.71,1.71,0,0,1,.53-1.27,1.73,1.73,0,0,1,1.27-.54h5.1a1.88,1.88,0,0,1,1.5.57,3.77,3.77,0,0,1,.71,1.1Z"/><path class="cls-3" d="M301.16,34.88a23.51,23.51,0,0,1,7.9,1.21,19.38,19.38,0,0,1,5.7,3,13.05,13.05,0,0,1,3.45,4,10.26,10.26,0,0,1,1.31,4.12,1.49,1.49,0,0,1-.51,1.3,1.89,1.89,0,0,1-1.3.51H313a2.8,2.8,0,0,1-1.71-.44,4.43,4.43,0,0,1-1-1.17,8.76,8.76,0,0,0-3-2.92,11.94,11.94,0,0,0-6.06-1.23,14.88,14.88,0,0,0-3.32.36,9.74,9.74,0,0,0-2.75,1.08,5.6,5.6,0,0,0-1.84,1.7,4,4,0,0,0-.67,2.28,4.43,4.43,0,0,0,.64,2.51,5,5,0,0,0,2.14,1.68,22.7,22.7,0,0,0,4,1.31c1.65.4,3.71.87,6.16,1.4a43.67,43.67,0,0,1,6.94,2.05,16.22,16.22,0,0,1,4.75,2.81A10.52,10.52,0,0,1,320,64.23a12.54,12.54,0,0,1,.91,4.89,12,12,0,0,1-1.34,5.59,12.88,12.88,0,0,1-3.82,4.42,19.55,19.55,0,0,1-6.1,2.92,28.7,28.7,0,0,1-8.11,1.07,28.06,28.06,0,0,1-7.17-.9,21.2,21.2,0,0,1-6.06-2.62A14.43,14.43,0,0,1,284,75.48a10.7,10.7,0,0,1-1.81-5.36,1.46,1.46,0,0,1,.5-1.3,1.9,1.9,0,0,1,1.31-.51h4.69a3.13,3.13,0,0,1,1.74.41,3,3,0,0,1,1,1.2,12.33,12.33,0,0,0,1.14,1.74,6.17,6.17,0,0,0,1.81,1.54,10.86,10.86,0,0,0,2.85,1.11,17.55,17.55,0,0,0,4.25.43,24.63,24.63,0,0,0,3.89-.3,11.28,11.28,0,0,0,3.28-1,7,7,0,0,0,2.28-1.74,3.91,3.91,0,0,0,.87-2.58,3.28,3.28,0,0,0-.94-2.42A7.44,7.44,0,0,0,308,65.1a40.7,40.7,0,0,0-4.73-1.28q-2.81-.6-6.5-1.54a34.18,34.18,0,0,1-5.86-1.91,13.57,13.57,0,0,1-4.15-2.71,10.08,10.08,0,0,1-2.45-3.79,14.9,14.9,0,0,1-.8-5.19,11.68,11.68,0,0,1,1.34-5.56,13.12,13.12,0,0,1,3.68-4.35,17.9,17.9,0,0,1,5.6-2.85A22.91,22.91,0,0,1,301.16,34.88Z"/><path class="cls-3" d="M348.26,35.55q8.1,0,12.59,3.82t4.49,11.19q0,7.36-4.49,11.25T348.26,65.7H337.54V80.64a1.84,1.84,0,0,1-1.81,1.81H330.3a1.84,1.84,0,0,1-1.81-1.81V37.36a1.84,1.84,0,0,1,1.81-1.81ZM337.54,57.32h10.38a11,11,0,0,0,6.1-1.5q2.28-1.51,2.28-5.26T354,45.37a11.31,11.31,0,0,0-6.1-1.44H337.54Z"/><path class="cls-3" d="M391.88,35.55a2.1,2.1,0,0,1,1.6.57,4.84,4.84,0,0,1,.94,1.71l16.42,42.34a1.68,1.68,0,0,1,.06.47,1.83,1.83,0,0,1-1.81,1.81h-4.82a2.53,2.53,0,0,1-1.88-.57,3.49,3.49,0,0,1-.73-1.1l-2.88-7.44H377.6l-2.88,7.44a3.49,3.49,0,0,1-.73,1.1,2.53,2.53,0,0,1-1.88.57h-4.82a1.83,1.83,0,0,1-1.81-1.81,1.68,1.68,0,0,1,.06-.47L382,37.83a4.84,4.84,0,0,1,.94-1.71,2.09,2.09,0,0,1,1.61-.57ZM395.56,65l-7.37-19.09L380.82,65Z"/><path class="cls-3" d="M444.87,67.58a2,2,0,0,1,.71-1.31,2,2,0,0,1,1.24-.44h5.42a1.91,1.91,0,0,1,1.31.51,1.46,1.46,0,0,1,.5,1.3,17.09,17.09,0,0,1-1.37,5.5,14.27,14.27,0,0,1-3.59,5A18.57,18.57,0,0,1,443,81.71a25,25,0,0,1-8.91,1.41,22.69,22.69,0,0,1-8.18-1.37,17.42,17.42,0,0,1-6-3.82A17.07,17.07,0,0,1,416,72.07a24.06,24.06,0,0,1-1.64-7.44c-.09-1.7-.14-3.58-.14-5.63s.05-3.93.14-5.63A24.06,24.06,0,0,1,416,45.93a17.07,17.07,0,0,1,3.85-5.86,17.42,17.42,0,0,1,6-3.82,22.69,22.69,0,0,1,8.18-1.37A25,25,0,0,1,443,36.29a18.57,18.57,0,0,1,6.09,3.62,14.14,14.14,0,0,1,3.59,5,17.25,17.25,0,0,1,1.37,5.46,1.46,1.46,0,0,1-.5,1.3,1.91,1.91,0,0,1-1.31.51h-5.42a2.18,2.18,0,0,1-1.28-.44,1.84,1.84,0,0,1-.73-1.31,7.54,7.54,0,0,0-.94-2.61,8,8,0,0,0-2-2.28,10.45,10.45,0,0,0-3.22-1.64,14.75,14.75,0,0,0-4.55-.63,11.8,11.8,0,0,0-4.56.8,9.49,9.49,0,0,0-3.25,2.14,9.25,9.25,0,0,0-2,3.22,13.71,13.71,0,0,0-.84,3.95c-.09,1.7-.13,3.58-.13,5.63s0,3.93.13,5.63a13.35,13.35,0,0,0,.84,4,9.31,9.31,0,0,0,2,3.19,9.49,9.49,0,0,0,3.25,2.14,11.8,11.8,0,0,0,4.56.8,14.75,14.75,0,0,0,4.55-.63,10.87,10.87,0,0,0,3.25-1.64,7.81,7.81,0,0,0,2-2.28A7.16,7.16,0,0,0,444.87,67.58Z"/><path class="cls-3" d="M493.11,74.07a1.84,1.84,0,0,1,1.81,1.81v4.76a1.84,1.84,0,0,1-1.81,1.81H463.7a1.84,1.84,0,0,1-1.81-1.81V37.36a1.84,1.84,0,0,1,1.81-1.81h28.88a1.73,1.73,0,0,1,1.27.54,1.71,1.71,0,0,1,.53,1.27v4.76a1.83,1.83,0,0,1-1.8,1.81H470.94V54.58H491.1a1.81,1.81,0,0,1,1.81,1.81v4.75a1.77,1.77,0,0,1-.53,1.28,1.74,1.74,0,0,1-1.28.53H470.94V74.07Z"/><path class="cls-3" d="M519.31,34.88a23.51,23.51,0,0,1,7.9,1.21,19.38,19.38,0,0,1,5.7,3,13.05,13.05,0,0,1,3.45,4,10.26,10.26,0,0,1,1.31,4.12,1.49,1.49,0,0,1-.51,1.3,1.89,1.89,0,0,1-1.3.51h-4.69a2.8,2.8,0,0,1-1.71-.44,4.43,4.43,0,0,1-1-1.17,8.76,8.76,0,0,0-3-2.92,11.94,11.94,0,0,0-6.06-1.23,14.88,14.88,0,0,0-3.32.36,9.74,9.74,0,0,0-2.75,1.08,5.6,5.6,0,0,0-1.84,1.7,4.07,4.07,0,0,0-.67,2.28,4.43,4.43,0,0,0,.64,2.51,5,5,0,0,0,2.14,1.68,22.7,22.7,0,0,0,4,1.31c1.65.4,3.71.87,6.16,1.4a43.67,43.67,0,0,1,6.94,2.05,16.22,16.22,0,0,1,4.75,2.81,10.52,10.52,0,0,1,2.75,3.79,12.54,12.54,0,0,1,.91,4.89,12,12,0,0,1-1.34,5.59,12.88,12.88,0,0,1-3.82,4.42,19.55,19.55,0,0,1-6.1,2.92,28.7,28.7,0,0,1-8.11,1.07,28.06,28.06,0,0,1-7.17-.9,21.2,21.2,0,0,1-6.06-2.62,14.43,14.43,0,0,1-4.25-4.12,10.7,10.7,0,0,1-1.81-5.36,1.46,1.46,0,0,1,.5-1.3,1.9,1.9,0,0,1,1.31-.51h4.69a3.13,3.13,0,0,1,1.74.41,2.94,2.94,0,0,1,1,1.2,14.38,14.38,0,0,0,1.14,1.74,6.17,6.17,0,0,0,1.81,1.54,10.86,10.86,0,0,0,2.85,1.11,17.61,17.61,0,0,0,4.25.43,24.63,24.63,0,0,0,3.89-.3,11.28,11.28,0,0,0,3.28-1,7,7,0,0,0,2.28-1.74,3.91,3.91,0,0,0,.87-2.58A3.28,3.28,0,0,0,529,66.7a7.44,7.44,0,0,0-2.84-1.6,40.7,40.7,0,0,0-4.73-1.28q-2.81-.6-6.5-1.54a34.18,34.18,0,0,1-5.86-1.91,13.69,13.69,0,0,1-4.15-2.71,10.08,10.08,0,0,1-2.45-3.79,15.14,15.14,0,0,1-.8-5.19A11.68,11.68,0,0,1,503,43.12a13.12,13.12,0,0,1,3.68-4.35,18,18,0,0,1,5.6-2.85A22.91,22.91,0,0,1,519.31,34.88Z"/></svg>
